<?xml version="1.0" standalone="no"?>
<!DOCTYPE svg PUBLIC "-//W3C//DTD SVG 20010904//EN"
 "http://www.w3.org/TR/2001/REC-SVG-20010904/DTD/svg10.dtd">
<svg version="1.0" xmlns="http://www.w3.org/2000/svg"
 width="1920.000000pt" height="2606.000000pt" viewBox="0 0 1920.000000 2606.000000"
 preserveAspectRatio="xMidYMid meet">

<g transform="translate(0.000000,2606.000000) scale(0.100000,-0.100000)"
fill="#000000" stroke="none">
<path d="M0 13030 l0 -13030 9600 0 9600 0 0 13030 0 13030 -9600 0 -9600 0 0
-13030z m18334 11082 c-9 -16 -25 -39 -36 -53 l-20 -24 16 28 c28 48 48 77 53
77 2 0 -3 -13 -13 -28z m-54 -86 c0 -2 -8 -10 -17 -17 -16 -13 -17 -12 -4 4
13 16 21 21 21 13z m-50 -70 c0 -2 -8 -10 -17 -17 -16 -13 -17 -12 -4 4 13 16
21 21 21 13z m-30 -40 c0 -2 -8 -10 -17 -17 -16 -13 -17 -12 -4 4 13 16 21 21
21 13z m-14965 -3996 c4 -22 10 -38 15 -35 4 2 5 17 3 32 -3 21 -2 24 5 13 6
-8 13 -44 17 -79 4 -35 11 -77 16 -93 4 -16 4 -26 0 -24 -4 3 -14 31 -22 63
-12 53 -14 55 -17 25 -2 -18 1 -56 7 -83 11 -49 15 -116 7 -108 -8 8 -45 215
-49 277 -6 68 7 76 18 12z m-38 -2 c-3 -7 -5 -2 -5 12 0 14 2 19 5 13 2 -7 2
-19 0 -25z m-152 -344 c2 -11 12 -39 21 -64 30 -82 33 -99 20 -94 -7 3 -19 17
-27 32 -8 15 -20 33 -28 41 -8 10 -11 27 -7 50 3 20 6 42 6 50 0 19 9 9 15
-15z m243 -25 c-3 -20 -5 -19 -9 9 -3 20 -2 29 4 23 5 -5 7 -19 5 -32z m-289
-88 c-15 -5 -22 6 -14 19 6 9 10 9 16 -1 5 -8 4 -15 -2 -18z m5727 -1070 c-9
-14 5 -41 21 -41 9 0 13 6 9 15 -6 18 -1 19 25 5 10 -6 19 -16 19 -23 0 -26
25 -67 40 -65 8 1 21 -1 28 -6 22 -13 29 4 8 19 -10 8 -22 16 -26 17 -4 2 -11
14 -15 28 -7 23 -4 22 32 -12 21 -21 44 -38 50 -38 17 0 25 -32 11 -41 -7 -4
-9 -11 -5 -15 3 -4 13 -2 20 5 11 9 17 8 27 -4 12 -15 11 -16 -22 -19 -32 -2
-20 -46 12 -46 6 0 8 -4 5 -10 -13 -22 11 -8 32 18 25 31 33 9 8 -24 -8 -10
-15 -27 -15 -36 0 -9 -16 -47 -36 -84 -21 -40 -33 -75 -30 -87 7 -27 -4 -45
-75 -124 -33 -38 -79 -101 -101 -140 -22 -40 -44 -75 -49 -79 -14 -8 -11 4 8
34 33 53 1 13 -42 -52 -24 -37 -46 -81 -50 -99 -16 -82 -29 -126 -36 -116 -4
8 -14 4 -28 -10 -23 -23 -37 -26 -46 -11 -3 5 10 26 29 46 20 21 36 44 36 53
-1 13 -4 12 -18 -4 -10 -11 -28 -26 -40 -33 -18 -10 -22 -10 -22 2 0 8 5 18
10 21 19 12 10 26 -11 20 l-22 -7 22 31 c12 17 26 33 31 36 6 4 10 14 9 23 0
14 -3 12 -16 -6 -16 -23 -72 -52 -99 -52 -8 0 -14 10 -14 25 0 14 5 25 10 25
6 0 10 -4 10 -10 0 -14 33 -13 48 2 13 13 17 48 5 48 -4 0 -20 -4 -37 -10 -17
-5 -44 -12 -59 -15 -20 -4 -27 -10 -23 -20 3 -8 1 -15 -4 -15 -6 0 -10 13 -10
30 l0 29 -44 -16 c-37 -14 -47 -15 -60 -4 -19 16 -21 52 -3 70 6 8 -3 5 -21
-5 -29 -16 -34 -17 -42 -4 -16 25 -12 40 19 71 23 23 26 29 13 30 -11 0 -12 2
-4 6 20 8 3 23 -28 23 -15 0 -30 -7 -34 -15 -5 -15 5 -19 34 -15 12 1 12 -2
-2 -16 -14 -15 -20 -15 -33 -4 -9 8 -15 24 -13 39 2 20 10 27 33 32 l30 5 -31
8 c-33 7 -53 25 -72 62 -10 20 -9 22 18 26 22 3 27 1 20 -7 -12 -15 -3 -25 23
-25 11 0 28 -7 37 -15 20 -18 104 -22 124 -6 12 10 16 8 21 -9 4 -12 2 -27 -5
-35 -15 -18 2 -27 35 -19 30 7 34 24 5 24 -11 0 -20 5 -20 10 0 6 3 10 8 10 4
0 21 11 37 24 l30 25 -65 -1 c-38 0 -74 -6 -87 -14 -27 -17 -41 -18 -25 -2 7
7 12 16 12 20 0 12 -38 10 -62 -3 -18 -9 -19 -8 -13 10 5 16 2 21 -13 21 -23
0 -64 42 -60 61 2 8 12 16 22 19 33 9 29 28 -8 40 -20 6 -36 17 -36 25 0 22
32 27 53 8 19 -18 19 -17 12 15 l-7 33 36 -6 c41 -8 45 -1 14 32 -25 26 -6 33
22 8 16 -15 17 -13 14 14 -3 29 -2 30 26 24 33 -6 35 -2 19 30 -5 12 14 -3 43
-33 29 -31 48 -49 41 -40 -17 21 -43 86 -43 105 0 29 17 15 29 -25 16 -53 67
-105 120 -121 38 -11 47 -11 73 4 35 20 51 22 46 5 -2 -6 -20 -17 -39 -24 -25
-9 -29 -13 -12 -13 34 -1 54 10 64 35 10 28 43 32 58 7 6 -10 11 -13 11 -6 0
15 -14 24 -70 43 -39 13 -46 21 -65 67 -35 89 -94 130 -146 103 -17 -10 -24
-9 -37 4 -13 12 -13 20 -4 40 14 31 55 43 96 28 33 -13 49 -7 26 9 -11 8 -8 8
10 3 38 -10 80 -44 92 -73 6 -14 13 -48 15 -76 6 -58 36 -101 53 -75 13 21 7
35 -15 35 -10 0 -20 6 -22 13 -3 7 1 10 11 6 12 -4 16 0 16 15 0 12 -6 21 -15
21 -8 0 -15 4 -15 10 0 5 7 7 15 4 9 -4 15 0 15 10 0 9 -7 16 -15 16 -8 0 -19
17 -25 41 -13 47 -7 60 17 36 11 -11 13 -17 5 -17 -7 0 -12 -7 -12 -15 0 -8 7
-15 15 -15 7 0 19 -8 24 -17 9 -16 10 -14 11 9 0 22 4 25 21 21 16 -5 20 -2
17 13 -2 10 -14 21 -28 24 l-25 6 23 8 c18 6 30 2 48 -15 25 -23 34 -10 14 21
-6 9 -5 17 3 22 16 10 19 10 13 -1z m763 -67 c12 -15 21 -41 21 -58 0 -17 12
-56 26 -86 41 -86 38 -117 -20 -181 -48 -54 -156 -254 -156 -291 0 -37 -30
-18 -43 30 -11 37 -18 46 -33 44 -16 -2 -22 8 -33 60 -7 35 -17 95 -21 133 -9
78 2 116 58 197 43 63 152 178 167 178 8 0 23 -12 34 -26z m-1073 -85 c10 -17
-13 -36 -27 -22 -12 12 -4 33 11 33 5 0 12 -5 16 -11z m64 -129 c29 -1 32 -2
17 -11 -24 -14 -63 -4 -71 18 -6 15 -5 16 5 6 7 -7 29 -13 49 -13z m1000 -281
c-7 -16 -16 -26 -21 -24 -8 6 -6 17 14 70 11 28 12 29 15 7 2 -13 -2 -37 -8
-53z m-225 -417 c-5 -5 -95 47 -95 54 0 3 22 -7 49 -23 28 -15 48 -29 46 -31z
m-99 -29 c21 -28 17 -70 -8 -87 -32 -23 -40 -7 -27 52 12 57 15 60 35 35z
m774 -106 c0 -7 -18 -31 -41 -52 -48 -47 -127 -197 -160 -306 -19 -62 -23 -97
-24 -216 0 -77 -3 -139 -6 -137 -4 2 -12 17 -19 34 -12 30 -35 44 -24 15 4 -8
3 -23 -1 -32 -6 -17 -7 -17 -16 -1 -5 10 -10 21 -10 25 0 5 -6 15 -14 23 -7 8
-21 41 -31 73 -16 52 -17 68 -6 153 23 184 93 339 171 383 74 41 181 64 181
38z m202 -134 c-167 -167 -234 -277 -263 -437 -7 -36 -16 -66 -20 -66 -10 0
-29 84 -29 132 0 109 70 269 154 353 74 75 129 107 169 100 23 -4 43 1 72 19
22 13 41 25 43 25 1 1 -56 -56 -126 -126z m726 -24 c3 -12 2 -12 -6 0 -6 8
-15 10 -22 6 -9 -5 -11 -4 -6 4 10 15 28 10 34 -10z m-115 -9 c-4 -4 -39 -17
-78 -30 -38 -12 -125 -49 -192 -81 -114 -55 -129 -65 -226 -161 -57 -57 -122
-125 -146 -153 -23 -27 -39 -43 -35 -35 5 8 8 34 9 58 0 24 5 46 11 50 6 4 15
17 18 30 10 30 144 164 157 157 5 -4 8 -1 7 7 -2 7 5 12 14 12 10 -1 16 2 13
6 -7 11 128 91 157 93 12 1 28 7 33 14 16 20 68 43 79 34 18 -13 80 -12 121 2
39 14 75 12 58 -3z m-3392 -186 c15 -18 17 -29 20 -91 2 -24 8 -43 13 -43 6 0
4 -5 -4 -10 -10 -6 -11 -10 -2 -10 6 0 12 -9 12 -20 0 -11 5 -20 10 -20 6 0
10 -11 10 -25 0 -14 -4 -25 -10 -25 -5 0 -10 -12 -10 -26 0 -14 -4 -23 -10
-19 -5 3 -10 2 -10 -4 0 -5 5 -11 12 -13 6 -2 9 -10 6 -18 -3 -9 -12 2 -23 28
-12 26 -22 38 -26 30 -14 -22 -80 145 -79 198 1 16 0 38 -2 48 -5 32 70 48 93
20z m3442 -1 c-7 -2 -19 -2 -25 0 -7 3 -2 5 12 5 14 0 19 -2 13 -5z m70 -6
c18 -10 23 -17 16 -24 -8 -8 -7 -13 0 -17 18 -11 13 -26 -6 -20 -14 5 -15 4
-4 -4 8 -6 20 -8 28 -5 7 3 13 0 13 -7 0 -7 6 -10 13 -7 7 2 33 -6 57 -19 48
-24 38 -31 -20 -14 -40 12 -253 15 -379 5 -62 -5 -103 -15 -146 -35 -71 -33
-107 -29 -49 6 22 13 45 24 52 24 6 0 12 4 12 10 0 5 12 13 28 16 15 4 48 19
74 35 59 35 119 52 185 50 42 -1 69 4 99 18 1 1 13 -5 27 -12z m-3818 -24 c36
-38 103 -179 117 -244 11 -56 4 -129 -12 -129 -6 0 -10 6 -10 13 0 7 -13 28
-30 47 -16 19 -29 38 -30 43 0 4 -22 42 -48 85 -53 86 -87 166 -77 182 7 11
41 28 57 29 4 1 19 -11 33 -26z m3990 -7 c14 -9 25 -19 25 -22 0 -4 -6 -2 -12
3 -7 6 -22 13 -32 17 -16 5 -17 4 -7 -8 11 -13 6 -14 -30 -11 -46 5 -66 15
-30 15 16 0 21 5 18 14 -8 19 34 14 68 -8z m-115 -6 c0 -13 -11 -13 -30 0 -12
8 -11 10 8 10 12 0 22 -4 22 -10z m-4056 -207 c68 -202 37 -319 -47 -174 -74
128 -115 242 -92 261 9 8 14 8 17 -1 3 -9 12 -7 33 4 17 9 35 16 41 17 6 0 27
-48 48 -107z m-103 -377 c-12 -14 -12 -17 -2 -11 10 6 12 4 6 -4 -4 -7 2 -22
16 -37 12 -13 18 -24 12 -24 -26 0 -198 219 -243 309 l-32 64 20 26 c10 14 30
28 43 31 22 5 30 -6 110 -165 80 -159 85 -171 70 -189z m3736 252 c7 19 154
15 257 -8 88 -20 135 -25 86 -10 -24 7 -23 7 12 15 27 5 46 2 70 -10 96 -51
114 -59 122 -56 5 1 3 -6 -5 -15 -13 -16 -12 -17 9 -12 12 4 20 2 17 -2 -3 -5
5 -16 17 -24 14 -10 17 -16 8 -16 -8 0 6 -15 30 -32 25 -18 48 -32 53 -30 5 1
6 -2 3 -7 -8 -12 69 -73 78 -63 4 4 6 2 4 -4 -3 -9 48 -64 59 -64 2 0 -1 9 -7
20 -16 30 6 24 27 -7 11 -16 24 -40 31 -55 l11 -27 -49 35 c-28 20 -56 34 -64
31 -8 -3 -13 1 -12 11 1 10 -6 16 -16 16 -10 -1 -16 2 -13 6 3 4 -2 13 -10 20
-8 7 -15 10 -15 6 0 -3 -18 14 -41 39 -23 24 -56 50 -74 57 -19 6 -32 15 -29
20 5 8 -11 12 -31 8 -5 -1 -14 5 -20 13 -19 26 -130 76 -211 96 -118 29 -162
33 -239 22 -171 -26 -217 -32 -221 -28 -3 2 27 14 66 26 38 12 70 28 70 34 0
7 5 6 11 -3 8 -11 12 -12 16 -2z m-4046 -105 c24 -40 100 -140 156 -207 30
-36 32 -41 17 -57 -14 -15 -13 -19 16 -39 17 -12 29 -24 26 -27 -8 -9 -120 83
-181 148 -32 35 -68 86 -81 114 -24 51 -32 101 -14 90 6 -3 10 -1 10 4 0 24
30 9 51 -26z m3871 -24 c40 -6 80 -14 88 -17 18 -6 29 -8 53 -10 9 -1 17 -9
17 -17 0 -12 -4 -13 -19 -5 -11 5 -28 7 -38 3 -27 -9 -63 -44 -64 -62 0 -14
-1 -14 -6 -1 -22 60 -91 78 -139 37 -23 -20 -25 -26 -15 -45 6 -12 19 -22 27
-22 8 0 12 -5 9 -10 -3 -6 -18 -7 -33 -3 -15 3 -47 7 -72 7 l-45 1 -3 63 c-2
38 2 69 9 78 14 17 127 19 231 3z m237 -16 c23 -19 40 -75 41 -130 0 -23 -5
-33 -21 -38 -25 -8 -39 2 -15 11 12 5 16 19 16 58 0 58 -10 76 -55 100 -26 13
-27 15 -9 16 12 0 32 -8 43 -17z m-10 -22 c10 -7 11 -13 2 -27 -9 -17 -10 -17
-11 -1 0 9 -4 17 -10 17 -5 0 -10 5 -10 10 0 12 10 13 29 1z m-711 -7 c30 -4
53 -15 80 -40 l37 -34 -51 21 c-70 30 -131 21 -185 -28 -43 -39 -59 -81 -59
-159 0 -93 61 -155 162 -162 l63 -5 -35 -13 c-34 -12 -34 -12 -7 -13 42 -1
103 34 132 76 14 21 25 33 25 27 0 -21 -45 -78 -79 -101 -40 -27 -131 -32
-184 -9 -43 18 -89 77 -116 150 -19 50 -20 66 -12 112 10 51 50 124 85 153 29
24 79 33 144 25z m-1888 -175 c0 -30 -7 -76 -16 -102 -11 -33 -14 -65 -10
-109 11 -116 11 -123 1 -127 -5 -2 -19 11 -30 30 -28 47 -26 179 2 264 12 33
24 75 28 94 10 49 25 20 25 -50z m2445 -1 c16 -15 14 -16 -19 -8 -24 5 -51 3
-78 -5 -24 -8 -38 -14 -33 -15 25 -4 -45 -18 -96 -19 -61 -1 -75 5 -58 26 8 9
37 13 95 13 96 0 129 10 139 41 7 22 8 22 21 3 7 -10 20 -26 29 -36z m-4011
-8 c57 -80 105 -129 175 -178 37 -26 68 -50 69 -54 2 -5 7 -6 12 -3 4 3 10 -6
12 -20 3 -14 1 -25 -5 -25 -6 0 -2 -7 9 -15 25 -19 10 -19 -57 1 -126 37 -242
121 -284 205 -61 120 -5 192 69 89z m3452 25 c20 -31 12 -70 -17 -86 -48 -25
-95 33 -70 87 15 34 64 33 87 -1z m-1280 -37 c-12 -16 -14 -39 -11 -92 13
-209 14 -321 3 -301 -15 24 -13 18 -34 130 -9 50 -18 102 -21 116 -6 32 13
137 28 155 6 8 20 14 31 14 18 0 18 -2 4 -22z m-1521 -10 c64 1 67 0 31 -9
-21 -5 -49 -21 -62 -36 -22 -25 -23 -26 -48 -10 -30 20 -59 22 -89 5 -30 -15
-46 -39 -47 -64 0 -26 -42 -37 -77 -21 -17 8 -23 18 -22 41 3 93 28 110 154
100 50 -3 122 -6 160 -6z m3565 -23 c-7 -8 -19 -15 -28 -15 -11 0 -9 6 9 23
25 23 40 17 19 -8z m-3407 11 c16 -12 16 -15 2 -29 -8 -9 -11 -17 -6 -19 4 -2
5 -12 0 -23 -6 -17 -8 -17 -8 -2 -1 9 -6 17 -12 17 -6 0 -9 7 -5 15 3 8 0 15
-6 15 -7 0 -7 4 1 13 6 8 8 17 4 20 -12 13 12 6 30 -7z m3974 -183 c18 -13 32
-29 30 -36 -1 -7 4 -11 11 -9 15 3 72 -29 72 -40 0 -4 7 -8 15 -8 8 0 14 -6
13 -12 -2 -7 5 -12 14 -12 10 1 17 -1 16 -5 -3 -24 4 -41 14 -35 7 5 8 3 2 -7
-13 -21 -13 -38 -1 -46 7 -3 9 -3 5 2 -4 4 -3 14 3 22 6 7 9 23 6 35 -5 19 -4
20 9 6 10 -9 16 -33 16 -61 0 -82 28 -93 -306 125 -82 54 -145 103 -155 120
-9 15 -22 28 -30 28 -8 0 -12 3 -8 6 3 3 -7 17 -24 31 -16 14 -29 31 -29 38 0
7 -6 15 -12 18 -7 2 1 4 17 4 17 1 34 -4 38 -11 4 -6 5 2 1 17 -6 26 2 22 122
-59 71 -48 144 -98 161 -111z m-872 177 c3 -5 -1 -10 -10 -10 -9 0 -13 5 -10
10 3 6 8 10 10 10 2 0 7 -4 10 -10z m-3034 -100 c-9 -23 -10 -21 -10 15 -1 22
3 51 7 65 6 22 7 20 10 -15 2 -23 -1 -52 -7 -65z m289 90 c33 -10 78 -55 66
-67 -3 -3 -19 0 -37 6 -44 15 -123 14 -164 -3 -40 -17 -46 -6 -20 32 26 36 93
50 155 32z m1974 -71 c-43 -46 -165 -124 -231 -149 -96 -36 -124 -33 -33 3
118 47 163 74 229 133 60 55 84 64 35 13z m-2371 -46 c-7 -2 -19 -2 -25 0 -7
3 -2 5 12 5 14 0 19 -2 13 -5z m-106 -66 c27 -11 44 -13 48 -6 4 5 14 8 23 5
10 -3 35 -6 57 -7 22 -2 46 -7 54 -13 10 -7 17 -5 27 9 13 18 14 17 14 -8 l0
-27 -92 1 c-121 1 -200 12 -211 31 -8 12 -15 13 -46 2 -20 -7 -56 -13 -81 -12
l-45 0 52 8 c87 13 103 19 115 46 12 25 13 25 28 7 8 -10 34 -26 57 -36z m445
36 c24 -21 23 -68 -2 -93 -37 -37 -85 -19 -96 36 -11 58 55 96 98 57z m2745
-45 c-3 -7 -5 -2 -5 12 0 14 2 19 5 13 2 -7 2 -19 0 -25z m-2542 -154 c-30
-61 -76 -101 -126 -109 l-34 -6 35 16 c67 31 117 95 136 175 8 35 8 35 12 7 2
-17 -7 -51 -23 -83z m-1435 63 c1 -29 64 -109 108 -137 57 -36 62 -36 136 -6
56 23 93 25 80 5 -3 -5 -1 -9 5 -9 5 0 12 4 16 9 6 11 63 41 77 41 18 0 -3
-19 -80 -73 -152 -107 -196 -117 -275 -67 -81 51 -119 136 -96 215 12 39 29
52 29 22z m3400 -68 c-49 -41 -246 -162 -300 -184 -34 -14 -77 -19 -175 -21
-85 -1 -166 -9 -232 -23 -55 -12 -123 -20 -150 -20 l-48 2 55 7 c30 4 93 18
140 30 57 15 129 25 220 29 123 6 142 9 214 40 43 19 128 67 189 107 111 72
154 89 87 33z m-2308 5 c11 -14 45 -39 75 -56 29 -17 52 -32 50 -34 -7 -7 -92
27 -114 45 -22 18 -49 71 -37 71 4 0 15 -12 26 -26z m2855 -16 c-3 -7 -5 -2
-5 12 0 14 2 19 5 13 2 -7 2 -19 0 -25z m-1924 5 c-7 -2 -19 -2 -25 0 -7 3 -2
5 12 5 14 0 19 -2 13 -5z m-1506 -50 c-3 -10 -5 -4 -5 12 0 17 2 24 5 18 2 -7
2 -21 0 -30z m-161 11 c-9 -8 -21 -12 -28 -8 -8 5 -6 10 8 15 31 12 37 10 20
-7z m1211 -1 c39 -5 43 -8 24 -14 -26 -10 -121 8 -121 23 0 6 11 8 25 4 14 -4
46 -9 72 -13z m183 -3 c-36 -11 -50 -11 -50 0 0 6 17 10 38 9 33 -1 34 -2 12
-9z m-1120 -25 c0 -2 -15 -12 -32 -20 l-33 -16 24 21 c22 19 41 26 41 15z
m1690 -25 c0 -4 3 -22 6 -39 8 -38 -8 -41 -24 -6 -17 37 -15 66 3 59 8 -4 15
-10 15 -14z m1545 -81 c-9 -17 -19 -29 -22 -26 -5 5 25 57 33 57 3 0 -3 -14
-11 -31z m-2880 -25 c-16 -14 -43 -32 -60 -41 -29 -15 -29 -15 -15 2 17 21 81
64 95 64 6 0 -3 -11 -20 -25z m466 -60 c49 -31 89 -57 89 -60 0 -6 -88 34
-135 61 -37 22 -66 55 -48 55 3 0 46 -25 94 -56z m2275 15 c4 -8 1 -8 -14 0
-12 6 -24 16 -28 22 -4 8 -1 8 14 0 12 -6 24 -16 28 -22z m-1287 12 c11 -7 4
-11 -25 -15 -21 -3 -75 -13 -119 -21 -217 -40 -555 -63 -555 -37 0 10 155 32
226 32 27 1 130 11 229 24 208 28 225 29 244 17z m1821 -15 c0 -8 -12 -28 -26
-43 l-26 -28 21 32 c12 17 21 36 21 42 0 6 2 11 5 11 3 0 5 -6 5 -14z m-3170
-61 c-45 -46 -63 -59 -39 -27 15 19 72 71 79 72 2 0 -16 -20 -40 -45z m4489
19 c18 -14 37 -36 43 -48 7 -12 -9 -3 -38 23 -27 25 -51 46 -53 48 -2 2 1 3 7
3 6 0 24 -12 41 -26z m-2469 -64 l-11 -25 6 25 c2 14 6 39 6 55 l2 30 4 -30
c2 -17 -1 -42 -7 -55z m640 50 c0 -5 -10 -15 -22 -21 l-23 -12 20 21 c23 24
25 25 25 12z m-3336 -52 c-40 -41 -104 -91 -110 -86 -2 3 26 35 63 71 37 36
70 61 72 56 2 -6 -10 -24 -25 -41z m-393 -10 c13 -14 19 -16 19 -7 0 8 6 3 13
-11 21 -42 127 -71 217 -58 19 2 25 -1 25 -17 0 -11 8 -38 19 -59 21 -44 18
-102 -8 -141 -13 -20 -25 -25 -55 -25 -58 0 -113 48 -193 165 -63 93 -97 168
-70 151 8 -5 10 -2 6 8 -9 23 6 20 27 -6z m950 -5 c13 -16 12 -17 -3 -4 -17
13 -22 21 -14 21 2 0 10 -8 17 -17z m-827 -20 c44 -22 46 -34 4 -27 -49 8 -81
26 -66 36 18 11 23 10 62 -9z m316 -8 c5 3 11 -9 15 -27 4 -18 22 -61 40 -95
33 -61 75 -183 75 -219 0 -43 23 -95 60 -141 22 -26 40 -56 40 -65 0 -10 5
-18 11 -18 6 0 8 -8 4 -19 -4 -14 3 -24 29 -40 38 -24 70 -67 69 -93 -1 -10 3
-18 8 -18 5 0 7 -12 3 -27 -4 -22 -3 -25 5 -13 10 13 11 13 11 0 0 -35 -13
-38 -90 -23 -41 8 -94 12 -117 9 -24 -4 -63 -9 -87 -12 -36 -5 -50 -2 -76 18
-31 22 -32 25 -27 76 12 116 83 169 185 137 17 -6 22 -3 22 10 0 9 -9 19 -20
22 -11 3 -20 10 -20 16 0 6 -3 7 -6 4 -4 -4 -34 17 -67 46 -64 55 -106 127
-107 182 -1 30 -1 30 -13 7 -28 -49 -35 12 -16 145 10 75 22 112 43 142 7 9
11 10 14 2 2 -6 7 -9 12 -6z m1769 -23 c64 -43 91 -89 91 -152 0 -25 7 -85 16
-135 9 -49 20 -135 24 -190 8 -116 31 -281 67 -485 28 -154 32 -180 58 -305 9
-44 20 -120 25 -170 4 -49 13 -108 20 -130 11 -36 10 -41 -10 -57 -34 -28 -62
-22 -165 33 -134 71 -150 90 -164 186 -6 43 -25 123 -42 178 -36 116 -66 152
-148 182 -28 10 -51 23 -51 29 0 7 -9 10 -21 7 -21 -6 -21 -5 -4 20 9 14 24
27 32 29 11 2 4 11 -22 29 -22 16 -32 30 -26 33 6 4 11 14 11 23 0 8 9 27 19
42 25 34 31 109 10 122 -9 6 1 9 34 9 39 0 53 5 72 26 26 28 29 51 26 179 -2
57 -4 62 -44 97 -23 21 -37 38 -32 38 6 0 2 5 -8 11 -9 5 -22 7 -29 3 -6 -4
-8 -3 -5 3 4 6 -6 13 -23 17 -17 3 -30 11 -30 18 0 7 -19 30 -42 50 l-43 36
-3 104 c-4 123 -3 125 94 139 37 5 70 12 73 14 2 3 45 5 95 5 88 -1 93 -2 145
-38z m1355 -47 c-28 -22 -40 -18 -13 4 13 11 26 17 28 15 3 -2 -4 -11 -15 -19z
m-2867 -10 c-4 -8 -11 -15 -17 -15 -14 0 -13 27 3 33 16 6 21 1 14 -18z m454
-2 c-32 -59 -70 -72 -92 -31 -16 30 -4 32 19 4 l20 -26 26 35 c29 37 43 47 27
18z m2919 14 c0 -2 -11 -18 -25 -37 -14 -19 -25 -30 -25 -26 0 9 39 66 46 66
2 0 4 -1 4 -3z m1602 -49 c-7 -29 -46 -50 -84 -46 l-33 4 44 13 c33 9 46 19
54 41 12 32 28 21 19 -12z m-5022 -19 c21 -40 22 -62 3 -37 -12 15 -34 78 -28
78 3 0 14 -18 25 -41z m195 -97 c-6 -16 -7 -16 -17 1 -5 10 -7 26 -3 35 6 16
7 16 17 -1 5 -10 7 -26 3 -35z m2580 38 c-3 -5 -23 -9 -43 -9 l-37 1 30 8 c44
11 57 11 50 0z m-2205 -62 c0 -6 -7 -5 -15 2 -8 7 -15 17 -15 22 0 6 7 5 15
-2 8 -7 15 -17 15 -22z m4559 -21 c25 -52 26 -68 6 -107 -21 -41 -24 -38 -13
14 8 37 6 53 -11 90 -25 58 -10 60 18 3z m-929 7 c0 -4 -24 -41 -53 -83 -29
-42 -59 -89 -67 -105 -8 -16 -39 -54 -68 -85 -51 -54 -54 -55 -68 -36 -21 29
-8 109 30 175 17 30 34 62 38 72 14 34 80 67 136 67 28 1 52 -2 52 -5z m-3997
-114 c-2 -2 -23 16 -46 40 l-42 44 46 -40 c25 -21 44 -41 42 -44z m3007 77 c0
-2 -10 -12 -22 -23 l-23 -19 19 23 c18 21 26 27 26 19z m-2505 -57 c3 -5 2
-10 -4 -10 -5 0 -13 5 -16 10 -3 6 -2 10 4 10 5 0 13 -4 16 -10z m3960 -64 c7
-6 10 -20 7 -31 -4 -16 -2 -18 9 -7 19 18 29 15 29 -9 0 -12 -8 -23 -20 -26
-11 -3 -20 -9 -20 -13 0 -13 -102 -60 -131 -60 -32 0 -68 -15 -129 -54 -44
-29 -63 -47 -108 -106 -42 -54 -108 -101 -149 -106 -34 -4 -40 -1 -55 23 -11
20 -13 35 -6 52 8 24 66 100 98 131 9 8 31 35 50 60 53 69 125 121 133 97 2
-7 21 3 46 22 23 19 57 37 74 42 40 9 157 0 172 -15z m423 -27 c-35 -47 -84
-66 -214 -84 -101 -13 -160 -27 -271 -61 -10 -3 -7 2 7 10 39 24 178 63 250
70 122 12 166 25 206 61 48 42 50 43 22 4z m-2092 -76 c-11 -11 -99 -43 -116
-42 -8 0 12 11 45 24 63 25 83 30 71 18z m2310 -45 l29 -33 -32 29 c-18 17
-33 31 -33 33 0 8 8 1 36 -29z m59 -48 c10 -11 16 -20 13 -20 -3 0 -13 9 -23
20 -10 11 -16 20 -13 20 3 0 13 -9 23 -20z m-3128 -22 c-3 -8 -6 -5 -6 6 -1
11 2 17 5 13 3 -3 4 -12 1 -19z m2218 -19 c-72 -37 -114 -67 -177 -128 -27
-25 -48 -40 -48 -34 0 33 225 194 270 193 8 -1 -12 -14 -45 -31z m-2228 -46
c-3 -10 -5 -2 -5 17 0 19 2 27 5 18 2 -10 2 -26 0 -35z m1089 19 c-6 -10 -83
-48 -116 -57 -45 -13 -9 13 55 39 69 29 68 29 61 18z m-1049 -99 c9 -7 12 -13
5 -13 -14 0 -42 40 -41 60 0 8 5 4 10 -10 5 -14 17 -31 26 -37z m465 36 c-24
-11 -49 -18 -55 -16 -7 2 8 11 33 20 62 21 74 19 22 -4z m1488 -93 c0 -2 -8
-10 -17 -17 -16 -13 -17 -12 -4 4 13 16 21 21 21 13z m-3413 -72 c-3 -3 -12
-4 -19 -1 -8 3 -5 6 6 6 11 1 17 -2 13 -5z m46 -11 c-7 -2 -19 -2 -25 0 -7 3
-2 5 12 5 14 0 19 -2 13 -5z m-857 -35 c3 -4 13 -8 23 -8 10 0 24 -7 31 -15
10 -13 10 -19 -4 -33 -30 -34 -20 -77 42 -170 60 -89 92 -157 92 -193 0 -18
-4 -20 -32 -14 -17 4 -38 14 -46 21 -7 8 -18 14 -23 14 -5 0 -21 11 -35 23
-14 13 -48 30 -75 37 -28 8 -52 17 -55 21 -2 4 -24 11 -48 14 -58 9 -93 46
-105 110 -18 97 15 188 73 198 40 7 157 4 162 -5z m1251 -44 c-3 -3 -12 -4
-19 -1 -8 3 -5 6 6 6 11 1 17 -2 13 -5z m730 -326 c-3 -7 -5 -2 -5 12 0 14 2
19 5 13 2 -7 2 -19 0 -25z m-10 -165 c-2 -16 -4 -5 -4 22 0 28 2 40 4 28 2
-13 2 -35 0 -50z m2401 12 c-3 -3 -9 2 -12 12 -6 14 -5 15 5 6 7 -7 10 -15 7
-18z m-4437 -14 c85 -29 154 -67 200 -111 23 -22 46 -40 51 -40 4 0 8 -5 8
-11 0 -6 12 -26 26 -45 27 -34 27 -57 1 -36 -10 8 -16 9 -24 1 -17 -17 -138
13 -220 54 -140 70 -168 90 -171 126 -4 41 21 81 52 81 12 0 47 -8 77 -19z
m4419 -77 c-30 -61 -36 -50 -8 13 13 28 25 47 26 42 2 -5 -6 -30 -18 -55z
m320 -56 c0 -19 -36 -98 -45 -98 -3 0 4 18 15 40 24 47 25 68 4 100 l-16 25
21 -24 c12 -13 21 -32 21 -43z m997 20 c-3 -7 -5 -2 -5 12 0 14 2 19 5 13 2
-7 2 -19 0 -25z m-5717 -149 c25 -5 98 -31 162 -56 120 -48 130 -57 132 -113
1 -14 -3 -28 -9 -32 -14 -11 -82 -10 -103 1 -14 7 -75 35 -232 104 -40 18 -60
39 -60 63 0 23 23 43 50 43 8 0 35 -4 60 -10z m4979 -48 c0 -14 -1 -14 -6 -1
-3 8 -13 24 -22 35 -16 20 -16 20 7 1 12 -11 22 -26 21 -35z m-19 -86 c-28
-46 -38 -45 -11 1 12 19 22 43 22 52 1 15 2 15 6 -1 2 -9 -5 -33 -17 -52z
m-720 -56 c-7 -16 -19 -34 -28 -41 -10 -9 -8 0 7 29 11 23 22 57 23 75 l1 33
4 -34 c3 -18 -1 -46 -7 -62z m-1614 5 c144 -32 266 -66 260 -71 -2 -3 -53 7
-113 22 -59 15 -169 40 -243 56 -99 21 -118 27 -70 23 35 -4 110 -17 166 -30z
m-196 -9 c95 -20 210 -57 210 -67 0 -11 -47 -21 -102 -22 -25 -1 -44 -4 -42
-7 2 -3 37 -12 79 -19 41 -7 73 -15 71 -17 -2 -3 -71 1 -153 7 -224 18 -263 0
-263 -122 0 -60 38 -252 74 -378 14 -46 23 -86 21 -88 -2 -2 -17 23 -34 56
-24 48 -34 59 -50 55 -34 -9 -59 16 -102 102 -43 85 -53 98 -138 172 -42 36
-47 38 -113 38 -46 0 -67 -4 -64 -11 2 -6 -11 -18 -30 -27 -43 -21 -44 -7 -4
43 17 21 30 44 30 51 0 7 -39 -41 -86 -107 -139 -193 -123 -157 30 70 133 196
211 265 327 285 72 13 246 6 339 -14z m1139 -65 c0 -10 -3 -8 -9 5 -12 27 -12
43 0 25 5 -8 9 -22 9 -30z m2071 -20 c-15 -57 -21 -46 -7 14 6 27 13 44 15 38
2 -6 -2 -29 -8 -52z m-1149 -90 c-6 -19 -20 -46 -32 -60 -20 -25 -20 -25 1 17
11 24 24 64 28 90 6 40 7 43 10 18 2 -16 -1 -45 -7 -65z m-931 67 c0 -7 -7
-22 -15 -33 -13 -17 -13 -16 -3 14 13 34 18 40 18 19z m-873 -33 c-3 -3 -12
-4 -19 -1 -8 3 -5 6 6 6 11 1 17 -2 13 -5z m1134 -97 c-11 -33 -61 -91 -61
-70 0 5 11 20 25 33 14 13 28 39 31 59 4 20 9 30 11 24 3 -7 0 -28 -6 -46z
m1226 21 c-3 -7 -5 -2 -5 12 0 14 2 19 5 13 2 -7 2 -19 0 -25z m-17 -42 c0 -2
-8 -10 -17 -17 -16 -13 -17 -12 -4 4 13 16 21 21 21 13z m-1924 -63 c-8 -15
-27 -41 -41 -58 -17 -21 -14 -11 12 31 38 62 57 80 29 27z m900 -97 c-14 -24
-45 -59 -68 -77 -41 -32 -40 -31 14 29 38 42 60 74 65 100 6 29 8 32 11 14 2
-12 -8 -42 -22 -66z m-659 -33 c-3 -10 -5 -2 -5 17 0 19 2 27 5 18 2 -10 2
-26 0 -35z m1188 10 c-7 -30 -48 -78 -80 -95 -11 -6 -1 7 22 28 23 22 45 52
48 67 4 15 9 27 12 27 3 0 2 -12 -2 -27z m482 -35 c-3 -8 -6 -5 -6 6 -1 11 2
17 5 13 3 -3 4 -12 1 -19z m-1686 -15 c-5 -10 -24 -31 -42 -48 -29 -27 -29
-25 7 17 42 51 50 58 35 31z m1670 -26 c-10 -9 -11 -8 -5 6 3 10 9 15 12 12 3
-3 0 -11 -7 -18z m-1856 -68 c-4 -5 0 -9 7 -9 17 -1 -21 -30 -39 -30 -7 0 -13
9 -13 21 0 11 5 17 10 14 6 -3 13 1 16 9 3 9 10 13 15 10 5 -3 7 -10 4 -15z
m415 -77 c0 -23 -9 -41 -32 -65 -18 -18 -26 -24 -17 -13 32 40 41 68 35 105
-5 26 -4 32 3 21 6 -8 11 -30 11 -48z m963 -26 c0 -31 -11 -45 -55 -70 l-33
-18 38 32 c38 33 45 56 26 93 -11 21 -10 21 6 5 10 -9 18 -28 18 -42z m-1673
-1 c-1 -5 9 -12 22 -15 13 -3 25 -15 27 -25 2 -11 8 -23 14 -27 6 -4 13 -51
15 -113 l3 -105 -31 -33 c-16 -17 -46 -49 -65 -71 -29 -31 -40 -37 -63 -33
-15 3 -34 1 -43 -4 -13 -7 -22 5 -49 64 -18 40 -57 112 -87 161 -61 102 -63
95 37 147 36 18 67 36 70 39 3 3 14 7 25 9 11 1 31 11 45 21 21 15 29 16 53 7
16 -7 28 -16 27 -22z m1237 13 c-3 -8 -6 -5 -6 6 -1 11 2 17 5 13 3 -3 4 -12
1 -19z m-1172 -18 c10 -11 16 -20 13 -20 -3 0 -13 9 -23 20 -10 11 -16 20 -13
20 3 0 13 -9 23 -20z m1152 -17 c-9 -10 -31 -27 -49 -37 -40 -23 -35 -17 17
23 46 34 54 38 32 14z m-3652 -53 c17 -11 27 -20 23 -20 -4 0 0 -19 8 -42 24
-68 16 -86 -75 -167 -19 -17 -42 -31 -51 -31 -16 0 -80 20 -120 37 -8 3 -19 7
-25 7 -5 1 -32 14 -58 30 -37 22 -61 29 -103 29 -49 1 -54 3 -54 23 0 76 69
110 275 139 128 18 146 17 180 -5z m3255 -149 c0 -19 -21 -41 -57 -60 -37 -19
-26 -5 13 18 29 18 35 26 32 46 -3 13 -1 22 3 19 5 -3 9 -13 9 -23z m690 15
c0 -16 -92 -41 -125 -35 -39 8 -25 27 27 37 79 14 98 14 98 -2z m79 -41 c0 -5
-4 -3 -9 5 -5 8 -9 22 -9 30 0 16 17 -16 18 -35z m105 -45 c5 -20 3 -19 -8 5
-7 17 -16 41 -20 55 -5 20 -3 19 8 -5 7 -16 16 -41 20 -55z m-2494 55 c7 -8 8
-15 2 -15 -5 0 -15 7 -22 15 -7 8 -8 15 -2 15 5 0 15 -7 22 -15z m2380 -38 c0
-7 -7 -22 -15 -33 -13 -17 -13 -16 -3 14 13 34 18 40 18 19z m-390 -12 c0 -8
-112 -56 -123 -52 -5 1 20 15 55 29 73 31 68 29 68 23z m-4084 -162 c14 -33
14 -38 -3 -61 -24 -32 -34 -36 -57 -19 -17 12 -17 16 -3 50 14 32 36 66 45 67
2 0 10 -16 18 -37z m3693 -33 c0 -10 -3 -8 -9 5 -12 27 -12 43 0 25 5 -8 9
-22 9 -30z m-2785 -26 c3 -8 2 -12 -4 -9 -6 3 -10 10 -10 16 0 14 7 11 14 -7z
m2776 2 c0 -2 -8 -10 -17 -17 -16 -13 -17 -12 -4 4 13 16 21 21 21 13z m-2750
-61 c0 -5 -5 -3 -10 5 -5 8 -10 20 -10 25 0 6 5 3 10 -5 5 -8 10 -19 10 -25z
m3705 -154 c3 -5 1 -12 -5 -16 -5 -3 -10 1 -10 9 0 18 6 21 15 7z m135 -46 c0
-5 -5 -3 -10 5 -5 8 -10 20 -10 25 0 6 5 3 10 -5 5 -8 10 -19 10 -25z m-122
11 c-7 -8 -15 -12 -17 -11 -5 6 10 25 20 25 5 0 4 -6 -3 -14z m22 -27 c0 -6
-4 -7 -10 -4 -5 3 -10 11 -10 16 0 6 5 7 10 4 6 -3 10 -11 10 -16z m-4780 -36
c-11 -17 -11 -17 -6 0 3 10 7 26 7 35 1 15 2 15 6 0 2 -10 -1 -25 -7 -35z
m4929 -58 c0 -5 -11 10 -24 35 -13 25 -24 50 -24 55 0 6 11 -10 24 -35 13 -25
24 -49 24 -55z m-4978 75 c46 -25 6 -109 -46 -96 -20 5 -25 13 -25 36 0 17 9
39 20 50 23 23 25 23 51 10z m4893 -98 c18 -37 19 -44 6 -52 -10 -6 -16 -6
-19 1 -2 7 -7 6 -12 -2 -6 -10 -9 -8 -9 9 0 23 -18 62 -34 74 -6 4 -4 14 5 24
8 10 9 15 2 11 -8 -5 -8 -1 0 17 l11 24 14 -32 c8 -17 24 -50 36 -74z m-4704
3 c11 -13 10 -20 -1 -41 -15 -29 -44 -48 -59 -39 -17 10 -11 54 10 75 24 24
33 25 50 5z m4815 -25 c9 -16 13 -30 11 -30 -3 0 -12 14 -21 30 -9 17 -13 30
-11 30 3 0 12 -13 21 -30z m-85 -81 c0 -3 -7 -6 -15 -6 -15 0 -20 18 -8 30 6
7 22 -10 23 -24z m41 -44 c5 4 9 0 9 -8 0 -8 7 -20 16 -28 10 -8 14 -23 12
-41 -3 -20 -1 -27 8 -24 8 3 18 -12 28 -41 9 -26 25 -56 35 -67 11 -12 39 -58
63 -104 54 -105 70 -134 94 -169 27 -41 44 -92 44 -137 l0 -39 -19 24 c-72 94
-281 471 -281 508 0 11 -3 21 -7 23 -13 5 -43 68 -33 68 6 0 10 5 10 11 0 5
-4 7 -10 4 -6 -3 -10 5 -10 19 0 29 24 41 28 14 2 -10 8 -16 13 -13z m-1951
-379 c0 -2 -8 -10 -17 -17 -16 -13 -17 -12 -4 4 13 16 21 21 21 13z m-3177
-348 c39 -7 63 -18 72 -32 20 -28 20 -139 0 -156 -8 -6 -17 -22 -21 -33 -11
-36 -45 -79 -59 -73 -7 2 -36 -4 -64 -15 -28 -10 -66 -19 -84 -19 -18 0 -38
-5 -44 -11 -15 -15 -90 42 -104 78 -5 13 -9 73 -9 131 0 111 5 125 51 146 19
8 190 -2 262 -16z m642 -74 c-96 -91 -161 -142 -125 -99 25 30 209 195 217
195 5 -1 -37 -44 -92 -96z m5314 -609 c0 -5 -18 28 -40 74 -21 46 -39 87 -38
90 1 9 78 -153 78 -164z m-5610 75 c1 -13 0 -13 -9 0 -5 8 -9 24 -9 35 l0 20
9 -20 c5 -11 9 -27 9 -35z m57 -77 c-8 -8 -56 25 -56 38 0 6 14 1 31 -11 16
-12 28 -25 25 -27z m-581 13 c34 -12 40 -18 41 -44 1 -21 -4 -32 -15 -35 -14
-3 -16 2 -13 24 3 23 -1 30 -34 48 -45 23 -36 27 21 7z m672 -60 c29 -16 54
-35 58 -44 6 -15 7 -16 -87 46 -21 14 -38 27 -38 29 0 6 5 4 67 -31z m5483 -1
c0 -5 -5 -3 -10 5 -5 8 -10 20 -10 25 0 6 5 3 10 -5 5 -8 10 -19 10 -25z
m-6508 -37 c-7 -7 -12 -8 -12 -2 0 14 12 26 19 19 2 -3 -1 -11 -7 -17z m69
-28 c22 -12 26 -40 4 -40 -18 0 -65 21 -65 29 0 3 3 16 6 28 5 20 8 21 21 8 8
-9 23 -20 34 -25z m274 30 c-3 -5 -17 -10 -31 -10 -13 0 -24 5 -24 10 0 6 14
10 31 10 17 0 28 -4 24 -10z m805 -70 c6 -11 8 -20 6 -20 -3 0 -10 9 -16 20
-6 11 -8 20 -6 20 3 0 10 -9 16 -20z m-1130 -97 c0 -5 0 -5 -52 22 -21 11 -34
24 -31 31 3 10 16 4 44 -18 21 -17 39 -33 39 -35z m6619 -138 c53 -132 91
-299 89 -385 0 -36 -3 -51 -5 -35 -17 126 -49 271 -88 385 -25 74 -45 135 -45
137 0 15 14 -13 49 -102z m-6704 45 c3 -5 2 -10 -4 -10 -5 0 -13 5 -16 10 -3
6 -2 10 4 10 5 0 13 -4 16 -10z m6082 -322 c-2 -18 -4 -6 -4 27 0 33 2 48 4
33 2 -15 2 -42 0 -60z m10 -570 c-1 -95 -3 -18 -3 172 0 190 2 267 3 173 2
-95 2 -251 0 -345z m742 205 c17 -83 30 -164 30 -179 -1 -20 -3 -23 -6 -9 -14
68 -63 326 -63 336 0 33 11 -10 39 -148z m-4989 83 c112 -20 235 -34 400 -47
74 -5 160 -13 190 -17 l55 -8 -35 -8 c-58 -14 -203 -23 -240 -14 -19 4 -70 8
-112 8 -42 0 -89 5 -104 10 -20 8 -29 8 -34 -1 -6 -8 -14 -8 -31 2 -13 7 -63
16 -110 20 -52 4 -96 13 -111 23 -13 9 -28 13 -33 9 -9 -9 3 15 17 34 6 7 22
10 36 8 15 -3 65 -11 112 -19z m4890 -756 c-6 -11 -13 -20 -16 -20 -2 0 0 9 6
20 6 11 13 20 16 20 2 0 0 -9 -6 -20z m-693 -82 c-3 -7 -5 -2 -5 12 0 14 2 19
5 13 2 -7 2 -19 0 -25z m-17 -118 c-7 -44 -15 -79 -18 -76 -2 3 1 42 8 86 7
44 15 79 18 76 2 -3 -1 -42 -8 -86z m-23 -112 c-3 -8 -6 -5 -6 6 -1 11 2 17 5
13 3 -3 4 -12 1 -19z m-80 -330 c-3 -8 -6 -5 -6 6 -1 11 2 17 5 13 3 -3 4 -12
1 -19z m-13 -62 c-3 -15 -8 -25 -11 -23 -2 3 -1 17 3 31 3 15 8 25 11 23 2 -3
1 -17 -3 -31z m-19 -76 c-9 -41 -17 -33 -9 9 4 17 9 30 11 27 3 -2 2 -19 -2
-36z m-4165 -553 c0 -2 -12 -14 -27 -28 l-28 -24 24 28 c23 25 31 32 31 24z
m-2356 -176 c8 -13 -71 -128 -88 -128 -20 0 -4 39 37 94 33 44 42 50 51 34z
m2243 -123 c-3 -7 -5 -2 -5 12 0 14 2 19 5 13 2 -7 2 -19 0 -25z"/>
<path d="M8737 18333 c-14 -13 -6 -33 13 -33 11 0 20 4 20 9 0 13 -26 32 -33
24z"/>
<path d="M8660 18286 c0 -9 7 -16 16 -16 9 0 14 5 12 12 -6 18 -28 21 -28 4z"/>
<path d="M8740 18265 c0 -8 7 -15 15 -15 8 0 15 -4 15 -10 0 -5 9 -10 20 -10
26 0 25 7 -2 31 -28 22 -48 24 -48 4z"/>
<path d="M8670 18236 c0 -9 7 -16 16 -16 9 0 14 5 12 12 -6 18 -28 21 -28 4z"/>
<path d="M8830 18225 c0 -8 7 -15 15 -15 8 0 15 7 15 15 0 8 -7 15 -15 15 -8
0 -15 -7 -15 -15z"/>
<path d="M8730 18205 c0 -10 7 -15 18 -13 21 4 19 22 -2 26 -10 2 -16 -3 -16
-13z"/>
<path d="M8675 18200 c-3 -6 1 -13 10 -16 19 -8 30 0 20 15 -8 14 -22 14 -30
1z"/>
<path d="M8875 18200 c-3 -6 1 -13 10 -16 13 -6 12 -12 -9 -49 -14 -23 -23
-45 -20 -47 2 -3 -2 -11 -11 -18 -19 -16 -20 -40 -1 -40 22 0 39 28 32 54 -4
16 2 35 19 60 24 36 24 66 0 66 -8 0 -17 -5 -20 -10z"/>
<path d="M8764 18179 c-8 -14 11 -33 25 -25 16 10 13 36 -3 36 -8 0 -18 -5
-22 -11z"/>
<path d="M8840 18155 c0 -8 6 -15 14 -15 8 0 16 7 20 15 4 10 -1 15 -14 15
-11 0 -20 -7 -20 -15z"/>
<path d="M8700 18150 c0 -5 7 -10 15 -10 8 0 15 5 15 10 0 6 -7 10 -15 10 -8
0 -15 -4 -15 -10z"/>
<path d="M8907 18132 c-22 -24 -21 -32 2 -32 10 0 22 7 25 16 14 37 0 46 -27
16z"/>
<path d="M8247 18123 c-10 -10 13 -33 34 -33 26 0 33 17 10 29 -23 13 -35 14
-44 4z"/>
<path d="M8720 18119 c0 -6 7 -9 15 -5 8 3 15 1 15 -4 0 -6 5 -10 10 -10 6 0
10 7 10 15 0 9 -9 15 -25 15 -14 0 -25 -5 -25 -11z"/>
<path d="M8815 18121 c-6 -11 9 -23 19 -14 9 9 7 23 -3 23 -6 0 -12 -4 -16 -9z"/>
<path d="M8785 18079 c-4 -6 -4 -13 -1 -16 8 -8 36 5 36 17 0 13 -27 13 -35
-1z"/>
<path d="M8290 18064 c0 -10 7 -14 22 -12 32 5 35 28 4 28 -17 0 -26 -5 -26
-16z"/>
<path d="M8670 18044 c0 -17 22 -14 28 4 2 7 -3 12 -12 12 -9 0 -16 -7 -16
-16z"/>
<path d="M8160 18036 c0 -24 43 -34 70 -16 13 9 13 11 0 20 -23 15 -70 12 -70
-4z"/>
<path d="M8336 18041 c-9 -13 9 -22 28 -15 9 3 16 1 16 -5 0 -14 37 -14 45 0
9 14 6 16 -41 24 -25 4 -44 2 -48 -4z"/>
<path d="M8754 18015 c-18 -28 -14 -41 11 -32 8 4 15 18 15 32 0 32 -5 32 -26
0z"/>
<path d="M8702 18018 c-14 -14 -16 -28 -2 -28 5 0 14 9 20 20 12 22 1 27 -18
8z"/>
<path d="M8440 18010 c0 -5 9 -10 20 -10 11 0 20 5 20 10 0 6 -9 10 -20 10
-11 0 -20 -4 -20 -10z"/>
<path d="M8632 18008 c-15 -15 -16 -38 -2 -38 12 0 23 25 18 40 -2 7 -7 7 -16
-2z"/>
<path d="M8216 18001 c-3 -5 1 -14 9 -21 13 -11 20 -10 40 0 14 7 25 17 25 22
0 11 -67 10 -74 -1z"/>
<path d="M8799 17988 c-7 -13 -18 -27 -25 -31 -19 -11 -18 -28 1 -21 27 11 16
-4 -21 -26 -35 -22 -35 -23 -14 -37 26 -18 50 -2 50 33 0 13 9 32 20 41 20 18
28 63 10 63 -5 0 -15 -10 -21 -22z"/>
<path d="M8291 17977 c-25 -31 27 -37 54 -7 18 20 17 20 -12 20 -17 0 -36 -6
-42 -13z"/>
<path d="M8390 17980 c-11 -6 -12 -12 -4 -20 8 -8 18 -5 35 9 22 19 23 20 4
21 -11 0 -27 -5 -35 -10z"/>
<path d="M8480 17980 c0 -5 7 -7 15 -4 8 4 15 8 15 10 0 2 -7 4 -15 4 -8 0
-15 -4 -15 -10z"/>
<path d="M8561 17961 c-17 -17 -20 -26 -12 -34 15 -15 44 14 39 39 -3 17 -5
17 -27 -5z"/>
<path d="M8640 17950 c-12 -12 -18 -26 -14 -32 5 -7 13 -4 26 11 31 40 22 55
-12 21z"/>
<path d="M8140 17935 c-19 -23 0 -37 29 -22 14 7 26 18 29 25 6 18 -43 15 -58
-3z"/>
<path d="M8694 17925 c-19 -28 -12 -44 10 -26 17 14 28 51 15 51 -5 0 -16 -11
-25 -25z"/>
<path d="M8472 17924 c-22 -15 -30 -44 -13 -44 13 0 61 40 61 51 0 14 -23 11
-48 -7z"/>
<path d="M8213 17923 c-20 -7 -15 -33 5 -33 11 0 27 9 37 20 18 19 17 20 -6
19 -13 0 -30 -3 -36 -6z"/>
<path d="M8280 17905 c-10 -12 -9 -15 8 -15 27 0 52 10 52 21 0 15 -47 10 -60
-6z"/>
<path d="M8570 17903 c-14 -9 -28 -22 -32 -27 -23 -33 10 -35 39 -3 42 47 39
62 -7 30z"/>
<path d="M8361 17901 c-24 -15 -6 -38 26 -34 36 6 45 43 10 43 -12 0 -28 -4
-36 -9z"/>
<path d="M8452 17854 c-24 -17 -30 -44 -9 -44 15 0 36 16 56 43 12 15 11 17
-6 17 -10 0 -29 -7 -41 -16z"/>
<path d="M8623 17843 c-13 -8 -23 -19 -23 -24 0 -15 26 -10 43 9 30 33 18 42
-20 15z"/>
<path d="M8712 17827 c-23 -24 -29 -47 -13 -47 16 0 41 31 41 51 0 24 -2 24
-28 -4z"/>
<path d="M8663 17833 c-14 -5 -18 -33 -5 -33 10 0 32 22 32 32 0 9 -8 9 -27 1z"/>
<path d="M8520 17810 c0 -5 6 -10 14 -10 8 0 18 5 21 10 3 6 -3 10 -14 10 -12
0 -21 -4 -21 -10z"/>
<path d="M8438 17793 c-29 -7 -21 -25 10 -21 15 2 26 7 25 13 -2 12 -12 14
-35 8z"/>
<path d="M8500 17775 c-21 -26 18 -32 43 -6 l21 21 -26 0 c-14 0 -31 -7 -38
-15z"/>
<path d="M8226 17763 c-11 -11 -6 -31 9 -37 17 -6 45 2 45 13 0 11 -47 31 -54
24z"/>
<path d="M8591 17757 c-26 -13 -30 -30 -7 -35 8 -2 20 6 26 18 15 28 10 32
-19 17z"/>
<path d="M8397 17743 c-4 -3 -7 -12 -7 -20 0 -19 34 -16 61 7 l24 19 -36 1
c-20 0 -39 -3 -42 -7z"/>
<path d="M8735 17739 c-4 -6 -5 -13 -2 -16 7 -7 27 6 27 18 0 12 -17 12 -25
-2z"/>
<path d="M8615 17726 c-16 -12 -18 -17 -7 -28 15 -15 47 0 47 22 0 20 -18 22
-40 6z"/>
<path d="M8303 17723 c-20 -7 -15 -33 5 -33 20 0 64 29 45 30 -6 0 -17 2 -25
4 -7 3 -19 2 -25 -1z"/>
<path d="M8480 17710 c-13 -9 -13 -11 -1 -19 18 -11 55 5 46 20 -8 12 -26 11
-45 -1z"/>
<path d="M8209 17671 c-38 -31 -12 -47 29 -18 17 12 32 25 32 30 0 14 -38 7
-61 -12z"/>
<path d="M8540 17675 c-7 -8 -10 -22 -6 -30 8 -22 46 -1 46 25 0 24 -22 26
-40 5z"/>
<path d="M8390 17660 c0 -24 41 -28 59 -7 14 18 4 27 -31 27 -21 0 -28 -5 -28
-20z"/>
<path d="M8323 17633 c-7 -2 -13 -11 -13 -19 0 -22 48 -17 60 6 9 17 8 20 -12
19 -13 0 -29 -3 -35 -6z"/>
<path d="M8435 17620 c-3 -5 -1 -10 4 -10 6 0 11 5 11 10 0 6 -2 10 -4 10 -3
0 -8 -4 -11 -10z"/>
<path d="M8502 17618 c-18 -18 -14 -38 8 -38 11 0 20 7 20 15 0 8 0 18 1 22 1
13 -16 14 -29 1z"/>
<path d="M8240 17595 c-21 -25 0 -37 39 -24 33 12 32 22 -5 33 -13 4 -26 1
-34 -9z"/>
<path d="M8374 17586 c-22 -17 -11 -35 13 -20 19 12 29 34 16 34 -5 0 -18 -6
-29 -14z"/>
<path d="M8541 17584 c0 -11 3 -14 6 -6 3 7 2 16 -1 19 -3 4 -6 -2 -5 -13z"/>
<path d="M8600 17560 c-6 -12 -9 -24 -7 -27 3 -2 11 5 17 17 6 12 9 24 7 27
-3 2 -11 -5 -17 -17z"/>
<path d="M9788 15943 c7 -3 16 -2 19 1 4 3 -2 6 -13 5 -11 0 -14 -3 -6 -6z"/>
<path d="M6915 14810 c-3 -5 1 -10 10 -10 9 0 13 5 10 10 -3 6 -8 10 -10 10
-2 0 -7 -4 -10 -10z"/>
</g>
</svg>
